<svg width="129" height="94" viewBox="0 0 129 94" fill="none" xmlns="http://www.w3.org/2000/svg">
	<g clip-path="url(#clip0_73_22)">
		<path d="M108.549 0H20.4512C9.15632 0 0 8.54856 0 19.0938V74.9062C0 85.4514 9.15632 94 20.4512 94H108.549C119.844 94 129 85.4514 129 74.9062V19.0938C129 8.54856 119.844 0 108.549 0Z" fill="#003087" />
		<path d="M35.0913 45.7134C40.0306 45.7137 44.5394 49.5089 44.5394 55.7351C44.5394 56.8089 44.6887 57.2382 44.1139 57.2382H32.8805C32.0931 57.2381 32.6499 56.1449 32.0924 54.6234C31.8156 53.8773 30.9521 53.3945 30.0752 53.3942C27.3883 53.3942 22.8305 52.6682 23.0221 55.7021C23.133 57.5218 24.2924 57.5412 25.8551 57.835C29.6236 58.5235 38.7434 59.9676 41.6097 61.4121C45.9915 63.6176 45.4429 67.4465 45.4428 71.9344C45.4428 76.793 40.6995 80.7808 36.288 80.7812H20.1953C17.6275 80.7812 15.7326 79.7597 13.9272 78.1851C13.1469 77.439 12.4892 76.5427 11.9853 75.5374C10.7547 73.2357 11.0404 71.1837 11.0405 68.261H23.1465C23.1465 70.4229 23.2615 72.2669 26.5524 72.2671C28.5836 72.2671 33.4885 72.9459 33.4889 70.0955C33.4889 67.3748 30.1806 67.399 27.9537 66.9945C25.5351 66.5563 23.3677 66.1421 21.0172 65.6606C18.7774 65.2031 16.1668 64.726 14.4849 63.6956C10.5205 61.2735 11.0404 59.2121 11.0405 54.7338C11.0405 49.3983 16.0517 45.7135 20.3397 45.7134H35.0913ZM72.0992 45.7335C75.263 45.7335 76.805 46.6969 78.5976 48.2379C82.1741 51.3051 81.698 54.5213 81.6979 58.7587C81.6979 59.1244 81.6125 59.2404 81.2723 59.2406H70.039C69.4172 59.2406 69.6118 58.3443 69.6118 57.5738C69.629 56.2829 69.7862 53.3942 67.8405 53.3942H61.1976C59.9546 53.3946 59.4262 54.7913 59.4262 56.2356V69.6136C59.4264 70.798 60.176 72.2851 61.1976 72.2857C70.2337 72.2857 69.6118 73.5375 69.6118 65.1054C71.1235 64.7058 79.1209 64.9377 81.2801 64.9377C81.6037 64.9377 81.7056 65.0343 81.7056 65.4196V71.9344C81.7056 76.7932 76.9581 80.7812 72.5508 80.7812H56.455C54.8012 80.7958 53.1724 80.3186 51.7324 79.3986C50.2924 78.4783 49.0903 77.1458 48.248 75.5359C47.6183 74.4086 47.2884 73.1 47.2986 71.7665V54.7525C47.2988 49.3736 52.3841 45.7335 56.6041 45.7335H72.0992ZM108.368 45.7335C111.532 45.7336 113.077 46.697 114.87 48.2379C118.442 51.3053 117.965 54.5224 117.965 58.76C117.965 59.1256 117.88 59.2406 117.54 59.2406H106.319C105.677 59.24 105.872 58.3454 105.872 57.5753C105.889 56.2847 106.047 53.3942 104.105 53.3942H97.4573C96.2143 53.3946 95.686 54.7913 95.6859 56.2356V69.6136C95.6859 70.798 96.4355 72.2853 97.4573 72.2857C106.498 72.2857 105.876 73.5383 105.876 65.1069C107.384 64.7072 115.381 64.9377 117.54 64.9377C117.864 64.9377 117.965 65.0343 117.965 65.4196V71.9344C117.965 76.7932 113.222 80.7811 108.811 80.7812H92.7178C91.0634 80.7961 89.4343 80.3187 87.9937 79.3986C86.5532 78.4784 85.3506 77.1473 84.5079 75.5374C83.8792 74.4094 83.5516 73.0998 83.563 71.7665V54.7525C83.5632 49.3738 88.6439 45.7335 92.8638 45.7335H108.368ZM65.4101 8.8125C65.796 8.83748 66.1603 9.02115 66.4348 9.32885C66.7094 9.63663 66.875 10.0473 66.9003 10.4835V39.3766C66.8752 39.8099 66.7114 40.2188 66.4394 40.5255C66.1675 40.832 65.8056 41.016 65.4223 41.0432H54.6406C54.2579 41.016 53.8963 40.8308 53.6251 40.524C53.3542 40.2173 53.1914 39.8093 53.1673 39.3766V10.4835C53.1909 10.0525 53.3522 9.64607 53.6206 9.3389C53.8891 9.03168 54.2475 8.84427 54.6283 8.8125H65.4101ZM28.4944 12.9878C28.8781 13.0161 29.2396 13.2011 29.5114 13.5085C29.7833 13.8159 29.9473 14.2249 29.9724 14.6588V39.3722C29.9472 39.8053 29.7831 40.2132 29.5114 40.5197C29.2394 40.8264 28.8777 41.0103 28.4944 41.0375H17.7126C17.3297 41.0101 16.9684 40.8264 16.6972 40.5197C16.4261 40.2131 16.2634 39.805 16.2394 39.3722V14.6588C16.2633 14.2254 16.4259 13.816 16.6972 13.5085C16.9682 13.201 17.3294 13.0162 17.7126 12.9878H28.4944ZM46.9499 19.8353C47.3332 19.8625 47.6951 20.0464 47.9669 20.3531C48.2389 20.6597 48.4027 21.0686 48.4278 21.5019V39.3722C48.4027 39.8053 48.2386 40.2132 47.9669 40.5197C47.6951 40.8264 47.3332 41.0103 46.9499 41.0375H36.1728C35.7895 41.0103 35.4278 40.8264 35.1558 40.5197C34.884 40.2132 34.72 39.8055 34.6949 39.3722V21.5019C34.72 21.0686 34.8838 20.6597 35.1558 20.3531C35.4276 20.0465 35.7896 19.8625 36.1728 19.8353H46.9499ZM83.8657 25.1854C84.2478 25.2134 84.6081 25.3978 84.8796 25.7031C85.1512 26.0085 85.3165 26.4144 85.3436 26.8463V39.3665C85.3185 39.7997 85.1545 40.2088 84.8828 40.5155C84.6108 40.822 84.2488 41.0059 83.8657 41.0332H73.087C72.7041 41.0059 72.3433 40.8217 72.0715 40.5155C71.7995 40.2088 71.6357 39.7999 71.6106 39.3665V26.8463C71.6376 26.4144 71.8017 26.0085 72.0731 25.7031C72.3446 25.3978 72.7049 25.2134 73.087 25.1854H83.8657Z" fill="white" />
	</g>
	<defs>
		<clipPath id="clip0_73_22">
			<rect width="129" height="94" fill="white" />
		</clipPath>
	</defs>
</svg>
